<mxfile host="app.diagrams.net" modified="2021-06-06T07:52:32.610Z" agent="5.0 (Windows NT 10.0; Win64; x64) AppleWebKit/537.36 (KHTML, like Gecko) Chrome/90.0.4430.212 Safari/537.36" etag="dcu7QvznwBXPBm4eMANW" version="14.7.6" type="github">
  <diagram id="uDaXQE5N1jUM4yX4yb1w" name="Page-1">
    <mxGraphModel dx="3076" dy="782" grid="1" gridSize="10" guides="1" tooltips="1" connect="1" arrows="1" fold="1" page="1" pageScale="1" pageWidth="827" pageHeight="1169" math="0" shadow="0">
      <root>
        <mxCell id="0" />
        <mxCell id="1" parent="0" />
        <mxCell id="nxbrp1VW7FKBq_d5zf_6-5" value="" style="edgeStyle=orthogonalEdgeStyle;rounded=0;orthogonalLoop=1;jettySize=auto;html=1;startArrow=classicThin;startFill=1;" edge="1" parent="1" source="nxbrp1VW7FKBq_d5zf_6-1">
          <mxGeometry relative="1" as="geometry">
            <mxPoint x="-75" y="90" as="targetPoint" />
          </mxGeometry>
        </mxCell>
        <mxCell id="nxbrp1VW7FKBq_d5zf_6-1" value="33d" style="rounded=0;whiteSpace=wrap;html=1;fillColor=#dae8fc;strokeColor=#6c8ebf;" vertex="1" parent="1">
          <mxGeometry x="-110" y="20" width="70" height="30" as="geometry" />
        </mxCell>
        <mxCell id="nxbrp1VW7FKBq_d5zf_6-12" value="" style="endArrow=classic;html=1;startArrow=classicThin;startFill=1;" edge="1" parent="1">
          <mxGeometry width="50" height="50" relative="1" as="geometry">
            <mxPoint x="-40" y="50" as="sourcePoint" />
            <mxPoint x="10" y="90" as="targetPoint" />
          </mxGeometry>
        </mxCell>
        <mxCell id="nxbrp1VW7FKBq_d5zf_6-14" value="" style="verticalLabelPosition=bottom;verticalAlign=top;html=1;shape=mxgraph.basic.rect;fillColor2=none;strokeWidth=1;size=20;indent=5;" vertex="1" parent="1">
          <mxGeometry x="-960" y="660" width="70" height="30" as="geometry" />
        </mxCell>
        <mxCell id="nxbrp1VW7FKBq_d5zf_6-16" value="" style="endArrow=classic;html=1;startArrow=classicThin;startFill=1;" edge="1" parent="1">
          <mxGeometry width="50" height="50" relative="1" as="geometry">
            <mxPoint x="-110" y="50" as="sourcePoint" />
            <mxPoint x="-170" y="90" as="targetPoint" />
          </mxGeometry>
        </mxCell>
        <mxCell id="nxbrp1VW7FKBq_d5zf_6-18" value="22a" style="rounded=0;whiteSpace=wrap;html=1;" vertex="1" parent="1">
          <mxGeometry x="-110" y="90" width="70" height="30" as="geometry" />
        </mxCell>
        <mxCell id="nxbrp1VW7FKBq_d5zf_6-19" value="32a" style="rounded=0;whiteSpace=wrap;html=1;" vertex="1" parent="1">
          <mxGeometry x="-210" y="90" width="70" height="30" as="geometry" />
        </mxCell>
        <mxCell id="nxbrp1VW7FKBq_d5zf_6-20" value="31a" style="rounded=0;whiteSpace=wrap;html=1;" vertex="1" parent="1">
          <mxGeometry x="-10" y="90" width="70" height="30" as="geometry" />
        </mxCell>
        <mxCell id="nxbrp1VW7FKBq_d5zf_6-21" value="" style="endArrow=classic;html=1;startArrow=classic;startFill=1;" edge="1" parent="1">
          <mxGeometry width="50" height="50" relative="1" as="geometry">
            <mxPoint x="-70" y="120" as="sourcePoint" />
            <mxPoint x="-40" y="160" as="targetPoint" />
          </mxGeometry>
        </mxCell>
        <mxCell id="nxbrp1VW7FKBq_d5zf_6-22" value="" style="endArrow=classic;html=1;startArrow=classic;startFill=1;" edge="1" parent="1">
          <mxGeometry width="50" height="50" relative="1" as="geometry">
            <mxPoint x="30" y="120" as="sourcePoint" />
            <mxPoint x="-10" y="160" as="targetPoint" />
          </mxGeometry>
        </mxCell>
        <mxCell id="nxbrp1VW7FKBq_d5zf_6-23" value="32d" style="rounded=0;whiteSpace=wrap;html=1;" vertex="1" parent="1">
          <mxGeometry x="-60" y="160" width="70" height="30" as="geometry" />
        </mxCell>
        <mxCell id="nxbrp1VW7FKBq_d5zf_6-24" value="30a" style="rounded=0;whiteSpace=wrap;html=1;" vertex="1" parent="1">
          <mxGeometry x="-60" y="230" width="70" height="30" as="geometry" />
        </mxCell>
        <mxCell id="nxbrp1VW7FKBq_d5zf_6-25" value="" style="edgeStyle=orthogonalEdgeStyle;rounded=0;orthogonalLoop=1;jettySize=auto;html=1;startArrow=classic;startFill=1;" edge="1" parent="1">
          <mxGeometry relative="1" as="geometry">
            <mxPoint x="-25.5" y="190" as="sourcePoint" />
            <mxPoint x="-25.5" y="230" as="targetPoint" />
            <Array as="points">
              <mxPoint x="-25.5" y="210" />
              <mxPoint x="-25.5" y="210" />
            </Array>
          </mxGeometry>
        </mxCell>
        <mxCell id="nxbrp1VW7FKBq_d5zf_6-26" value="" style="edgeStyle=orthogonalEdgeStyle;rounded=0;orthogonalLoop=1;jettySize=auto;html=1;startArrow=classic;startFill=1;" edge="1" parent="1">
          <mxGeometry relative="1" as="geometry">
            <mxPoint x="-25.5" y="260" as="sourcePoint" />
            <mxPoint x="-25.5" y="300" as="targetPoint" />
            <Array as="points">
              <mxPoint x="-25.5" y="280" />
              <mxPoint x="-25.5" y="280" />
            </Array>
          </mxGeometry>
        </mxCell>
        <mxCell id="nxbrp1VW7FKBq_d5zf_6-27" value="31d" style="rounded=0;whiteSpace=wrap;html=1;" vertex="1" parent="1">
          <mxGeometry x="-60" y="300" width="70" height="30" as="geometry" />
        </mxCell>
        <mxCell id="nxbrp1VW7FKBq_d5zf_6-28" value="" style="edgeStyle=orthogonalEdgeStyle;rounded=0;orthogonalLoop=1;jettySize=auto;html=1;startArrow=openThin;startFill=0;" edge="1" parent="1">
          <mxGeometry relative="1" as="geometry">
            <mxPoint x="-25.5" y="330" as="sourcePoint" />
            <mxPoint x="-25.5" y="370" as="targetPoint" />
            <Array as="points">
              <mxPoint x="-25.5" y="350" />
              <mxPoint x="-25.5" y="350" />
            </Array>
          </mxGeometry>
        </mxCell>
        <mxCell id="nxbrp1VW7FKBq_d5zf_6-29" value="31d" style="rounded=0;whiteSpace=wrap;html=1;" vertex="1" parent="1">
          <mxGeometry x="-60" y="370" width="70" height="30" as="geometry" />
        </mxCell>
        <mxCell id="nxbrp1VW7FKBq_d5zf_6-30" value="" style="edgeStyle=orthogonalEdgeStyle;rounded=0;orthogonalLoop=1;jettySize=auto;html=1;startArrow=open;startFill=0;" edge="1" parent="1">
          <mxGeometry relative="1" as="geometry">
            <mxPoint x="-25.5" y="400" as="sourcePoint" />
            <mxPoint x="-25.5" y="440" as="targetPoint" />
            <Array as="points">
              <mxPoint x="-25.5" y="420" />
              <mxPoint x="-25.5" y="420" />
            </Array>
          </mxGeometry>
        </mxCell>
        <mxCell id="nxbrp1VW7FKBq_d5zf_6-31" value="11a" style="rounded=0;whiteSpace=wrap;html=1;" vertex="1" parent="1">
          <mxGeometry x="-60" y="440" width="70" height="30" as="geometry" />
        </mxCell>
        <mxCell id="nxbrp1VW7FKBq_d5zf_6-32" value="" style="edgeStyle=orthogonalEdgeStyle;rounded=0;orthogonalLoop=1;jettySize=auto;html=1;startArrow=classicThin;startFill=1;" edge="1" parent="1">
          <mxGeometry relative="1" as="geometry">
            <mxPoint x="-25.5" y="470" as="sourcePoint" />
            <mxPoint x="-25.5" y="510" as="targetPoint" />
            <Array as="points">
              <mxPoint x="-25.5" y="490" />
              <mxPoint x="-25.5" y="490" />
            </Array>
          </mxGeometry>
        </mxCell>
        <mxCell id="nxbrp1VW7FKBq_d5zf_6-33" value="22d" style="rounded=0;whiteSpace=wrap;html=1;" vertex="1" parent="1">
          <mxGeometry x="-60" y="510" width="70" height="30" as="geometry" />
        </mxCell>
        <mxCell id="nxbrp1VW7FKBq_d5zf_6-34" value="" style="edgeStyle=orthogonalEdgeStyle;rounded=0;orthogonalLoop=1;jettySize=auto;html=1;startArrow=classicThin;startFill=1;" edge="1" parent="1">
          <mxGeometry relative="1" as="geometry">
            <mxPoint x="-25.5" y="540" as="sourcePoint" />
            <mxPoint x="-25.5" y="580" as="targetPoint" />
            <Array as="points">
              <mxPoint x="-25.5" y="560" />
              <mxPoint x="-25.5" y="560" />
            </Array>
          </mxGeometry>
        </mxCell>
        <mxCell id="nxbrp1VW7FKBq_d5zf_6-35" value="02a" style="rounded=0;whiteSpace=wrap;html=1;" vertex="1" parent="1">
          <mxGeometry x="-60" y="580" width="70" height="30" as="geometry" />
        </mxCell>
        <mxCell id="nxbrp1VW7FKBq_d5zf_6-36" value="" style="edgeStyle=orthogonalEdgeStyle;rounded=0;orthogonalLoop=1;jettySize=auto;html=1;startArrow=classicThin;startFill=1;" edge="1" parent="1">
          <mxGeometry relative="1" as="geometry">
            <mxPoint x="-25.5" y="610" as="sourcePoint" />
            <mxPoint x="-25.5" y="650" as="targetPoint" />
            <Array as="points">
              <mxPoint x="-25.5" y="630" />
              <mxPoint x="-25.5" y="630" />
            </Array>
          </mxGeometry>
        </mxCell>
        <mxCell id="nxbrp1VW7FKBq_d5zf_6-37" value="03d" style="rounded=0;whiteSpace=wrap;html=1;" vertex="1" parent="1">
          <mxGeometry x="-60" y="650" width="70" height="30" as="geometry" />
        </mxCell>
        <mxCell id="nxbrp1VW7FKBq_d5zf_6-38" value="" style="edgeStyle=orthogonalEdgeStyle;rounded=0;orthogonalLoop=1;jettySize=auto;html=1;startArrow=classicThin;startFill=1;" edge="1" parent="1">
          <mxGeometry relative="1" as="geometry">
            <mxPoint x="-25.5" y="680" as="sourcePoint" />
            <mxPoint x="-25.5" y="720" as="targetPoint" />
            <Array as="points">
              <mxPoint x="-25.5" y="700" />
              <mxPoint x="-25.5" y="700" />
            </Array>
          </mxGeometry>
        </mxCell>
        <mxCell id="nxbrp1VW7FKBq_d5zf_6-39" value="01a" style="rounded=0;whiteSpace=wrap;html=1;" vertex="1" parent="1">
          <mxGeometry x="-60" y="720" width="70" height="30" as="geometry" />
        </mxCell>
        <mxCell id="nxbrp1VW7FKBq_d5zf_6-40" value="" style="endArrow=classic;html=1;startArrow=classicThin;startFill=1;" edge="1" parent="1">
          <mxGeometry width="50" height="50" relative="1" as="geometry">
            <mxPoint x="-30" y="750" as="sourcePoint" />
            <mxPoint x="-60" y="770" as="targetPoint" />
          </mxGeometry>
        </mxCell>
        <mxCell id="nxbrp1VW7FKBq_d5zf_6-41" value="" style="endArrow=classic;html=1;startArrow=classicThin;startFill=1;" edge="1" parent="1">
          <mxGeometry width="50" height="50" relative="1" as="geometry">
            <mxPoint x="-20" y="750" as="sourcePoint" />
            <mxPoint x="10" y="770" as="targetPoint" />
          </mxGeometry>
        </mxCell>
        <mxCell id="nxbrp1VW7FKBq_d5zf_6-42" value="02d" style="rounded=0;whiteSpace=wrap;html=1;" vertex="1" parent="1">
          <mxGeometry x="-120" y="770" width="70" height="30" as="geometry" />
        </mxCell>
        <mxCell id="nxbrp1VW7FKBq_d5zf_6-43" value="11d" style="rounded=0;whiteSpace=wrap;html=1;" vertex="1" parent="1">
          <mxGeometry y="770" width="70" height="30" as="geometry" />
        </mxCell>
        <mxCell id="nxbrp1VW7FKBq_d5zf_6-44" value="" style="endArrow=classic;html=1;startArrow=classicThin;startFill=1;" edge="1" parent="1">
          <mxGeometry width="50" height="50" relative="1" as="geometry">
            <mxPoint x="10" y="800" as="sourcePoint" />
            <mxPoint x="-20" y="820" as="targetPoint" />
          </mxGeometry>
        </mxCell>
        <mxCell id="nxbrp1VW7FKBq_d5zf_6-46" value="" style="endArrow=classic;html=1;startArrow=classicThin;startFill=1;" edge="1" parent="1">
          <mxGeometry width="50" height="50" relative="1" as="geometry">
            <mxPoint x="-60" y="800" as="sourcePoint" />
            <mxPoint x="-30" y="820" as="targetPoint" />
          </mxGeometry>
        </mxCell>
        <mxCell id="nxbrp1VW7FKBq_d5zf_6-47" value="00a" style="rounded=0;whiteSpace=wrap;html=1;" vertex="1" parent="1">
          <mxGeometry x="-60" y="820" width="70" height="30" as="geometry" />
        </mxCell>
      </root>
    </mxGraphModel>
  </diagram>
</mxfile>
